<svg width="17" height="17" viewBox="0 0 17 17" fill="none" xmlns="http://www.w3.org/2000/svg">
<path id="Vector 29" d="M0.671964 13.8949C0.183808 14.3831 0.183808 15.1745 0.671964 15.6627C1.16012 16.1508 1.95158 16.1508 2.43973 15.6627L0.671964 13.8949ZM16.0137 1.57091C16.0137 0.880559 15.4541 0.320915 14.7637 0.320914L3.51374 0.320914C2.82339 0.320914 2.26374 0.880558 2.26374 1.57091C2.26374 2.26127 2.82339 2.82091 3.51374 2.82091H13.5137V12.8209C13.5137 13.5113 14.0734 14.0709 14.7637 14.0709C15.4541 14.0709 16.0137 13.5113 16.0137 12.8209L16.0137 1.57091ZM2.43973 15.6627L15.6476 2.4548L13.8799 0.687031L0.671964 13.8949L2.43973 15.6627Z" fill="#006F62"/>
</svg>
