<svg width="22" height="36" viewBox="0 0 22 36" fill="none" xmlns="http://www.w3.org/2000/svg">
<g id="Vector" filter="url(#filter0_d_33_2391)">
<path d="M8.27273 27.0988C8.26846 26.9878 8.25992 26.8769 8.25992 26.7638C8.25992 22.9782 8.25992 19.1927 8.25992 15.4093C8.25992 15.2983 8.25992 15.1895 8.25992 15.0465C6.90063 15.0465 5.56267 15.0465 4.21191 15.0465C4.21191 13.4674 4.21191 11.9225 4.21191 10.3455C5.54987 10.3455 6.88783 10.3455 8.25992 10.3455C8.25992 10.2132 8.25992 10.1129 8.25992 10.0126C8.26419 8.78351 8.23432 7.55012 8.28554 6.32313C8.34742 4.8422 8.78487 3.48504 9.83048 2.37754C10.6264 1.53679 11.6166 1.06093 12.7368 0.819798C13.6459 0.625613 14.5677 0.649082 15.4875 0.683225C16.2343 0.710965 16.9812 0.777119 17.7259 0.826199C17.7835 0.830467 17.8433 0.847539 17.9137 0.860342C17.9137 2.24951 17.9137 3.63014 17.9137 5.05132C17.8241 5.05132 17.7344 5.04919 17.6448 5.05132C16.7251 5.06412 15.8033 5.05132 14.8857 5.09827C13.7995 5.15375 13.1871 5.75765 13.1402 6.8502C13.0932 7.9833 13.1231 9.12067 13.1209 10.2559C13.1209 10.2708 13.1316 10.2858 13.1508 10.3306C14.6659 10.3306 16.1916 10.3306 17.7622 10.3306C17.5595 11.9118 17.3589 13.4568 17.1583 15.0316C15.8161 15.0316 14.4866 15.0316 13.138 15.0316C13.1295 15.1319 13.1167 15.2066 13.1167 15.2791C13.1167 19.1585 13.1167 23.038 13.1167 26.9174C13.1167 26.9772 13.1252 27.0369 13.1295 27.0966C11.5077 27.0988 9.89022 27.0988 8.27273 27.0988Z" fill="white"/>
</g>
<defs>
<filter id="filter0_d_33_2391" x="0.211914" y="0.660156" width="21.7018" height="34.4385" filterUnits="userSpaceOnUse" color-interpolation-filters="sRGB">
<feFlood flood-opacity="0" result="BackgroundImageFix"/>
<feColorMatrix in="SourceAlpha" type="matrix" values="0 0 0 0 0 0 0 0 0 0 0 0 0 0 0 0 0 0 127 0" result="hardAlpha"/>
<feOffset dy="4"/>
<feGaussianBlur stdDeviation="2"/>
<feComposite in2="hardAlpha" operator="out"/>
<feColorMatrix type="matrix" values="0 0 0 0 0 0 0 0 0 0 0 0 0 0 0 0 0 0 0.25 0"/>
<feBlend mode="normal" in2="BackgroundImageFix" result="effect1_dropShadow_33_2391"/>
<feBlend mode="normal" in="SourceGraphic" in2="effect1_dropShadow_33_2391" result="shape"/>
</filter>
</defs>
</svg>
