<svg width="23" height="24" viewBox="0 0 23 24" fill="none" xmlns="http://www.w3.org/2000/svg">
<g id="Frame" clip-path="url(#clip0_2005_204)">
<path id="Vector" d="M11.7324 23.043C9.60658 23.043 7.4808 23.0272 5.35501 23.0492C4.08225 23.0623 3.13576 22.2479 2.83046 21.1727C2.49853 20.0019 2.25384 18.8067 1.98082 17.6194C1.573 15.8459 1.16857 14.0712 0.773206 12.2948C0.499057 11.0646 0.725627 9.95822 1.65626 9.05674C2.06579 8.6606 2.56764 8.44782 3.14369 8.43933C3.64101 8.43198 4.1389 8.42915 4.63622 8.43764C4.80048 8.44047 4.85882 8.3935 4.86732 8.22542C4.93982 6.82425 5.32725 5.51305 6.05907 4.3156C7.06731 2.66713 8.46637 1.50533 10.3758 1.05996C12.0558 0.668357 13.648 0.959231 15.0918 1.89863C17.0653 3.18323 18.1313 5.05976 18.5249 7.34714C18.5759 7.64311 18.5991 7.94474 18.6201 8.24466C18.6303 8.38727 18.6767 8.43934 18.8246 8.43651C19.2692 8.42802 19.7138 8.43877 20.1585 8.43254C21.1747 8.4184 21.8934 8.90734 22.3874 9.75732C22.8496 10.5524 22.9175 11.4064 22.7159 12.2914C22.0741 15.1074 21.4335 17.9233 20.7906 20.7387C20.6196 21.4879 20.2769 22.1314 19.6402 22.5948C19.2029 22.9129 18.7118 23.0436 18.1777 23.043C16.0293 23.0419 13.8808 23.043 11.7324 23.043ZM11.7539 10.2746C8.99541 10.2746 6.2375 10.2746 3.47901 10.2746C3.38838 10.2746 3.29776 10.2723 3.2077 10.278C2.85311 10.2995 2.67129 10.4364 2.56424 10.7754C2.44189 11.163 2.49967 11.5512 2.58633 11.9349C3.09101 14.1719 3.59626 16.4089 4.10661 18.6448C4.25898 19.3115 4.40908 19.9792 4.59373 20.6374C4.70872 21.0471 4.95964 21.1948 5.38163 21.1948C8.39614 21.1948 11.4106 21.1948 14.4251 21.1948C15.6837 21.1948 16.9423 21.1903 18.2009 21.1987C18.4581 21.2004 18.6484 21.1003 18.7594 20.8898C18.8704 20.6804 18.965 20.4535 19.0183 20.2231C19.459 18.3183 19.8911 16.4118 20.3194 14.5047C20.5482 13.4849 20.7668 12.4635 20.9832 11.4409C21.011 11.3107 21.0121 11.1698 20.9968 11.0374C20.9334 10.4692 20.7142 10.2757 20.1415 10.2757C17.3456 10.274 14.5498 10.2746 11.7539 10.2746ZM16.7639 8.41896C16.7707 8.37199 16.7781 8.34992 16.7764 8.32842C16.6506 6.50508 15.9732 4.94885 14.5481 3.75875C13.0402 2.49962 10.8674 2.40794 9.25653 3.52617C8.10783 4.32409 7.38904 5.4242 6.98461 6.74446C6.81921 7.28433 6.71499 7.83608 6.71216 8.41896C10.0688 8.41896 13.4101 8.41896 16.7639 8.41896Z" fill="black"/>
<path id="Vector_2" d="M17.031 15.9197C17.031 16.8534 17.0361 17.7872 17.0293 18.7209C17.0247 19.3892 16.4912 19.8329 15.8834 19.688C15.4733 19.5901 15.1878 19.2274 15.1839 18.7747C15.1776 18.0441 15.1816 17.3135 15.1816 16.5835C15.1816 15.4087 15.1759 14.2339 15.1839 13.0591C15.1884 12.3885 15.7979 11.9516 16.4096 12.1644C16.7987 12.2996 17.0287 12.6465 17.0298 13.1185C17.0332 14.0522 17.031 14.986 17.031 15.9197Z" fill="black"/>
<path id="Vector_3" d="M8.08145 15.9056C8.08145 16.8693 8.08542 17.8336 8.07976 18.7974C8.07749 19.1884 7.88661 19.481 7.53033 19.6332C7.17744 19.7843 6.83476 19.7311 6.54078 19.4708C6.32384 19.2789 6.23718 19.0249 6.23718 18.743C6.23491 16.8529 6.23095 14.9622 6.23945 13.0721C6.24228 12.5068 6.6501 12.1027 7.16668 12.109C7.69969 12.1146 8.08032 12.5249 8.08202 13.1038C8.08485 14.0376 8.08259 14.9713 8.08259 15.9056C8.08202 15.9056 8.08145 15.9056 8.08145 15.9056Z" fill="black"/>
<path id="Vector_4" d="M12.5579 15.9061C12.5579 16.8625 12.5647 17.8189 12.5551 18.7752C12.5483 19.4617 11.8907 19.9053 11.2795 19.6405C10.8728 19.4645 10.7086 19.1278 10.7086 18.6983C10.7086 17.4482 10.7086 16.1981 10.7086 14.948C10.7086 14.3233 10.7035 13.6979 10.7108 13.0732C10.7165 12.6239 10.9646 12.2798 11.3498 12.1564C11.7208 12.037 12.1405 12.1468 12.3529 12.4773C12.4679 12.6567 12.5443 12.8927 12.5489 13.1054C12.5698 14.0386 12.5579 14.9724 12.5579 15.9061Z" fill="black"/>
</g>
<defs>
<clipPath id="clip0_2005_204">
<rect width="22.1585" height="22.1585" fill="white" transform="translate(0.665283 0.889893)"/>
</clipPath>
</defs>
</svg>
