<svg width="26" height="38" viewBox="0 0 26 38" fill="none" xmlns="http://www.w3.org/2000/svg">
<g id="Group 32416">
<circle id="Ellipse 406" cx="13.0219" cy="7.18174" r="5.44873" stroke="black" stroke-width="1.8"/>
<g id="Ellipse 407">
<mask id="path-2-inside-1_2005_212" fill="white">
<path d="M0.483226 24.9755C0.483226 23.3291 0.80751 21.6988 1.43756 20.1778C2.06761 18.6567 2.99109 17.2746 4.15528 16.1104C5.31946 14.9462 6.70155 14.0227 8.22263 13.3927C9.74371 12.7626 11.374 12.4384 13.0204 12.4384C14.6668 12.4384 16.2971 12.7626 17.8182 13.3927C19.3392 14.0228 20.7213 14.9462 21.8855 16.1104C23.0497 17.2746 23.9732 18.6567 24.6032 20.1778C25.2333 21.6988 25.5576 23.3291 25.5576 24.9755L13.0204 24.9755L0.483226 24.9755Z"/>
</mask>
<path d="M0.483226 24.9755C0.483226 23.3291 0.80751 21.6988 1.43756 20.1778C2.06761 18.6567 2.99109 17.2746 4.15528 16.1104C5.31946 14.9462 6.70155 14.0227 8.22263 13.3927C9.74371 12.7626 11.374 12.4384 13.0204 12.4384C14.6668 12.4384 16.2971 12.7626 17.8182 13.3927C19.3392 14.0228 20.7213 14.9462 21.8855 16.1104C23.0497 17.2746 23.9732 18.6567 24.6032 20.1778C25.2333 21.6988 25.5576 23.3291 25.5576 24.9755L13.0204 24.9755L0.483226 24.9755Z" stroke="black" stroke-width="3.6" mask="url(#path-2-inside-1_2005_212)"/>
</g>
</g>
</svg>
