<svg width="26" height="26" viewBox="0 0 26 26" fill="none" xmlns="http://www.w3.org/2000/svg">
<g id="Group 53">
<path id="Vector" d="M25.4792 7.71125C25.4792 11.1083 25.4792 14.5068 25.4792 17.9039C25.4656 17.9927 25.4475 18.08 25.4385 18.1689C25.3843 18.6673 25.3602 19.1702 25.2759 19.6641C25.0063 21.2542 24.3287 22.632 23.1075 23.7147C21.784 24.8877 20.1924 25.356 18.4682 25.4734C17.8704 25.5141 17.2711 25.5397 16.6718 25.5728C14.1316 25.5728 11.5928 25.5728 9.05259 25.5728C8.8975 25.5593 8.7424 25.5382 8.5873 25.5337C7.57391 25.5081 6.56053 25.4674 5.56972 25.225C3.48572 24.713 1.93627 23.528 1.01323 21.5735C0.439526 20.3583 0.266361 19.0513 0.251303 17.7247C0.222694 14.9962 0.200104 12.2677 0.210644 9.53926C0.215162 8.29699 0.228717 7.0487 0.496746 5.8245C0.972573 3.65618 2.15611 2.02993 4.18289 1.06774C5.3815 0.49855 6.67045 0.329905 7.98048 0.298284C11.4739 0.215466 14.9688 0.174808 18.4607 0.343455C19.4786 0.393146 20.4739 0.588898 21.4075 1.01202C23.7264 2.06306 24.9446 3.92571 25.3256 6.39068C25.3963 6.82886 25.4295 7.27156 25.4792 7.71125ZM12.8321 23.3352C12.8321 23.3217 12.8321 23.3096 12.8336 23.2961C13.5097 23.2961 14.1858 23.3157 14.8619 23.2916C16.3029 23.2404 17.753 23.2569 19.179 23.0777C21.1275 22.8323 22.445 21.709 22.9208 19.7695C23.1136 18.9865 23.1783 18.1568 23.1934 17.3452C23.237 14.7975 23.2461 12.2497 23.231 9.70189C23.225 8.68247 23.1753 7.65553 23.0488 6.64365C22.7928 4.6003 21.5235 3.2195 19.5027 2.81445C18.6369 2.64128 17.7364 2.59008 16.851 2.57653C14.4779 2.5419 12.1018 2.53738 9.72869 2.56448C8.61893 2.57803 7.49561 2.60514 6.40392 2.78132C4.50061 3.08849 3.23575 4.21482 2.8051 6.11964C2.61236 6.97191 2.55967 7.86634 2.53858 8.74421C2.49191 10.7966 2.47835 12.8505 2.50094 14.9029C2.516 16.3198 2.55213 17.7412 2.69217 19.1476C2.83522 20.5781 3.52035 21.7451 4.79424 22.4935C5.59231 22.9618 6.48222 23.156 7.39473 23.1892C9.20618 23.2584 11.0191 23.29 12.8321 23.3352Z" fill="white"/>
<path id="Vector_2" d="M12.8577 19.4169C9.26337 19.4079 6.34215 16.4821 6.35269 12.8984C6.36323 9.30106 9.29348 6.38287 12.8757 6.40244C16.4745 6.42202 19.3596 9.31311 19.3641 12.9044C19.3702 16.4972 16.4429 19.4259 12.8577 19.4169ZM8.646 12.9074C8.64449 15.2414 10.5207 17.1206 12.8547 17.1236C15.1916 17.1266 17.0693 15.2564 17.0769 12.921C17.0844 10.5765 15.2007 8.68972 12.8562 8.69122C10.5222 8.69423 8.64751 10.5719 8.646 12.9074Z" fill="white"/>
<path id="Vector_3" d="M21.1395 6.12781C21.1486 6.96653 20.486 7.65016 19.6548 7.6622C18.8086 7.67425 18.1159 6.99965 18.1084 6.16093C18.1024 5.32221 18.7604 4.64462 19.5961 4.63106C20.4514 4.61751 21.1305 5.27704 21.1395 6.12781Z" fill="white"/>
</g>
</svg>
