<svg width="17" height="18" viewBox="0 0 17 18" fill="none" xmlns="http://www.w3.org/2000/svg">
<path id="Vector" d="M12.6566 3.51388C12.4607 3.51388 12.2693 3.57195 12.1064 3.68076C11.9436 3.78957 11.8167 3.94423 11.7417 4.12517C11.6668 4.30611 11.6472 4.50521 11.6854 4.6973C11.7236 4.88939 11.8179 5.06583 11.9564 5.20432C12.0949 5.34281 12.2713 5.43712 12.4634 5.47533C12.6555 5.51354 12.8546 5.49393 13.0355 5.41898C13.2165 5.34403 13.3711 5.21711 13.4799 5.05426C13.5888 4.89142 13.6468 4.69997 13.6468 4.50412C13.6468 4.24149 13.5425 3.98962 13.3568 3.80391C13.1711 3.61821 12.9192 3.51388 12.6566 3.51388ZM16.4525 5.51086C16.4365 4.82619 16.3082 4.14879 16.0729 3.50563C15.8631 2.95533 15.5365 2.45703 15.1157 2.04502C14.7071 1.62205 14.2076 1.29754 13.6551 1.09605C13.0136 0.853571 12.3355 0.722405 11.6499 0.708203C10.7751 0.658691 10.4946 0.658691 8.25003 0.658691C6.00549 0.658691 5.72492 0.658691 4.85021 0.708203C4.1646 0.722405 3.48644 0.853571 2.84498 1.09605C2.29348 1.29958 1.79445 1.62381 1.38438 2.04502C0.961405 2.45364 0.636896 2.95311 0.435402 3.50563C0.192926 4.14709 0.0617604 4.82524 0.0475587 5.51086C-0.00195317 6.38557 -0.00195312 6.66614 -0.00195312 8.91068C-0.00195312 11.1552 -0.00195317 11.4358 0.0475587 12.3105C0.0617604 12.9961 0.192926 13.6743 0.435402 14.3157C0.636896 14.8682 0.961405 15.3677 1.38438 15.7763C1.79445 16.1975 2.29348 16.5218 2.84498 16.7253C3.48644 16.9678 4.1646 17.0989 4.85021 17.1131C5.72492 17.1627 6.00549 17.1627 8.25003 17.1627C10.4946 17.1627 10.7751 17.1627 11.6499 17.1131C12.3355 17.0989 13.0136 16.9678 13.6551 16.7253C14.2076 16.5238 14.7071 16.1993 15.1157 15.7763C15.5384 15.3659 15.8652 14.8671 16.0729 14.3157C16.3082 13.6726 16.4365 12.9952 16.4525 12.3105C16.4525 11.4358 16.502 11.1552 16.502 8.91068C16.502 6.66614 16.502 6.38557 16.4525 5.51086ZM14.9671 12.2115C14.9611 12.7353 14.8663 13.2543 14.6866 13.7463C14.5548 14.1055 14.3432 14.43 14.0677 14.6953C13.8 14.9681 13.4762 15.1792 13.1187 15.3142C12.6266 15.4939 12.1076 15.5888 11.5838 15.5948C10.7586 15.636 10.4533 15.6443 8.28304 15.6443C6.11277 15.6443 5.80744 15.6443 4.98225 15.5948C4.43835 15.605 3.89678 15.5212 3.38136 15.3472C3.03955 15.2054 2.73057 14.9947 2.47364 14.7283C2.19975 14.4632 1.99077 14.1385 1.863 13.7793C1.66153 13.2802 1.54979 12.7495 1.53292 12.2115C1.53292 11.3863 1.4834 11.0809 1.4834 8.91068C1.4834 6.7404 1.4834 6.43508 1.53292 5.60988C1.53661 5.07437 1.63437 4.54368 1.82174 4.04201C1.96701 3.6937 2.18999 3.38321 2.47364 3.13429C2.72435 2.85056 3.03419 2.62522 3.38136 2.47413C3.88436 2.29262 4.41451 2.19775 4.94924 2.19356C5.77444 2.19356 6.07976 2.14405 8.25003 2.14405C10.4203 2.14405 10.7256 2.14405 11.5508 2.19356C12.0746 2.19957 12.5936 2.29444 13.0857 2.47413C13.4607 2.6133 13.7973 2.83956 14.0677 3.13429C14.3381 3.38777 14.5494 3.69768 14.6866 4.04201C14.87 4.5445 14.9649 5.07497 14.9671 5.60988C15.0084 6.43508 15.0167 6.7404 15.0167 8.91068C15.0167 11.0809 15.0084 11.3863 14.9671 12.2115ZM8.25003 4.67741C7.41312 4.67904 6.59548 4.9287 5.90041 5.39485C5.20534 5.861 4.66403 6.52271 4.34489 7.29639C4.02575 8.07006 3.94309 8.92096 4.10737 9.74159C4.27164 10.5622 4.67547 11.3157 5.26783 11.907C5.86019 12.4982 6.6145 12.9005 7.43545 13.0632C8.25639 13.2259 9.10714 13.1416 9.88019 12.8209C10.6532 12.5003 11.3139 11.9577 11.7787 11.2617C12.2435 10.5657 12.4916 9.74759 12.4916 8.91068C12.4926 8.35375 12.3836 7.80211 12.1707 7.28748C11.9579 6.77284 11.6454 6.30537 11.2512 5.91195C10.857 5.51853 10.3889 5.20692 9.87386 4.99505C9.35881 4.78318 8.80695 4.67523 8.25003 4.67741ZM8.25003 11.6586C7.70655 11.6586 7.17527 11.4974 6.72337 11.1955C6.27148 10.8935 5.91928 10.4644 5.71129 9.96226C5.50331 9.46014 5.44889 8.90763 5.55492 8.37459C5.66095 7.84154 5.92266 7.35191 6.30697 6.96761C6.69127 6.58331 7.1809 6.32159 7.71394 6.21557C8.24698 6.10954 8.7995 6.16395 9.30161 6.37194C9.80373 6.57992 10.2329 6.93213 10.5348 7.38402C10.8368 7.83591 10.9979 8.36719 10.9979 8.91068C10.9979 9.27154 10.9269 9.62887 10.7888 9.96226C10.6507 10.2956 10.4483 10.5986 10.1931 10.8537C9.93793 11.1089 9.635 11.3113 9.30161 11.4494C8.96822 11.5875 8.61089 11.6586 8.25003 11.6586Z" fill="#0B0D0A"/>
</svg>
