<svg width="17" height="17" viewBox="0 0 17 17" fill="none" xmlns="http://www.w3.org/2000/svg">
<path id="Vector" d="M14.8737 0.645129H1.61716C1.46814 0.643059 1.32018 0.670365 1.18172 0.725485C1.04325 0.780606 0.917005 0.862462 0.810182 0.966379C0.703358 1.0703 0.618051 1.19424 0.559132 1.33113C0.500214 1.46802 0.468838 1.61517 0.466797 1.76419V15.1772C0.468838 15.3263 0.500214 15.4734 0.559132 15.6103C0.618051 15.7472 0.703358 15.8711 0.810182 15.975C0.917005 16.079 1.04325 16.1608 1.18172 16.2159C1.32018 16.2711 1.46814 16.2984 1.61716 16.2963H14.8737C15.0227 16.2984 15.1707 16.2711 15.3091 16.2159C15.4476 16.1608 15.5739 16.079 15.6807 15.975C15.7875 15.8711 15.8728 15.7472 15.9317 15.6103C15.9906 15.4734 16.022 15.3263 16.0241 15.1772V1.76419C16.022 1.61517 15.9906 1.46802 15.9317 1.33113C15.8728 1.19424 15.7875 1.0703 15.6807 0.966379C15.5739 0.862462 15.4476 0.780606 15.3091 0.725485C15.1707 0.670365 15.0227 0.643059 14.8737 0.645129ZM5.18563 13.7452H2.83795V6.70213H5.18563V13.7452ZM4.01179 5.71611C3.68801 5.71611 3.3775 5.58749 3.14856 5.35855C2.91961 5.1296 2.791 4.81909 2.791 4.49532C2.791 4.17154 2.91961 3.86103 3.14856 3.63209C3.3775 3.40314 3.68801 3.27453 4.01179 3.27453C4.18371 3.25503 4.35782 3.27206 4.5227 3.32452C4.68758 3.37697 4.83953 3.46366 4.96859 3.57891C5.09765 3.69416 5.20091 3.83537 5.27161 3.99329C5.34231 4.15121 5.37885 4.32229 5.37885 4.49532C5.37885 4.66834 5.34231 4.83942 5.27161 4.99734C5.20091 5.15527 5.09765 5.29647 4.96859 5.41172C4.83953 5.52697 4.68758 5.61366 4.5227 5.66612C4.35782 5.71857 4.18371 5.73561 4.01179 5.71611ZM13.6529 13.7452H11.3052V9.9654C11.3052 9.01851 10.9687 8.40028 10.1157 8.40028C9.85176 8.40222 9.59471 8.48502 9.37923 8.63753C9.16375 8.79005 9.00019 9.00495 8.9106 9.25327C8.84937 9.43721 8.82283 9.63091 8.83235 9.82454V13.7373H6.48467C6.48467 13.7373 6.48467 7.336 6.48467 6.69431H8.83235V7.68816C9.04562 7.31809 9.35581 7.01321 9.72951 6.80637C10.1032 6.59953 10.5262 6.49855 10.9531 6.51432C12.5182 6.51432 13.6529 7.52382 13.6529 9.69151V13.7452Z" fill="#0B0D0A"/>
</svg>
