<svg width="27" height="33" viewBox="0 0 27 33" fill="none" xmlns="http://www.w3.org/2000/svg">
<path id="Vector" d="M15.0355 0.03125C15.6919 0.11517 16.3529 0.169006 17.0029 0.288552C19.116 0.677277 21.0493 1.48797 22.7467 2.82436C24.7141 4.37372 26.033 6.34822 26.6601 8.78032C27.0535 10.3051 27.0472 11.8442 26.8342 13.3888C26.5611 15.3768 25.9111 17.2293 24.7869 18.9006C23.2613 21.1696 21.1997 22.6984 18.519 23.3183C17.1082 23.6445 15.6839 23.7046 14.2779 23.2391C13.2067 22.8844 12.2638 22.3445 11.5877 21.3295C11.3573 22.1687 11.1451 22.9541 10.925 23.7371C10.5355 25.1226 10.2244 26.5326 9.59815 27.8437C8.86504 29.3772 7.97754 30.8181 7.01246 32.213C6.95625 32.2946 6.8177 32.3856 6.74091 32.3682C6.66411 32.3508 6.5794 32.2091 6.56278 32.1109C6.21126 29.9519 5.96267 27.7787 6.32527 25.6055C6.55486 24.2295 6.95229 22.8805 7.28481 21.5227C7.77328 19.5308 8.27522 17.5428 8.75895 15.5501C8.79695 15.3926 8.77399 15.1978 8.71778 15.0435C8.07571 13.2708 7.96646 11.503 8.80566 9.76678C9.33927 8.66236 10.1706 7.85007 11.4278 7.65056C13.1355 7.3806 14.3776 8.31005 14.5194 10.0542C14.5922 10.952 14.3642 11.8117 14.1124 12.6604C13.7245 13.9707 13.3223 15.2778 12.9146 16.5817C12.1633 18.9822 14.1069 20.5853 16.1613 20.4254C18.3733 20.2528 19.8768 19.0336 20.9495 17.1977C21.8442 15.6665 22.2178 13.9818 22.3136 12.2234C22.3833 10.948 22.2717 9.70186 21.8093 8.50006C21.0651 6.56356 19.739 5.15275 17.85 4.33572C14.9112 3.06425 11.9424 3.13075 9.0883 4.55581C6.50102 5.84786 4.96909 8.00841 4.55107 10.8886C4.25735 12.9146 4.72049 14.7774 5.96583 16.4234C6.13447 16.6459 6.17326 16.8731 6.10517 17.1343C5.931 17.7954 5.76316 18.4581 5.58582 19.1183C5.45044 19.6218 5.2636 19.701 4.77908 19.4706C3.73958 18.9758 2.95184 18.196 2.33431 17.2452C0.907667 15.049 0.384354 12.6478 0.845915 10.0676C1.71283 5.21846 4.6627 2.22109 9.26643 0.737445C10.4532 0.355054 11.6795 0.161879 12.9241 0.0866675C13.0167 0.0811256 13.1078 0.0526241 13.1996 0.0344151C13.814 0.0312483 14.4251 0.03125 15.0355 0.03125Z" fill="white"/>
</svg>
