<svg width="29" height="24" viewBox="0 0 29 24" fill="none" xmlns="http://www.w3.org/2000/svg">
<path id="Vector" d="M0.475586 21.0111C3.60649 21.2907 6.39986 20.5328 8.94959 18.6153C7.22055 18.5152 5.83112 17.8609 4.72674 16.624C4.18767 16.02 3.70451 15.1552 3.59821 14.6002C4.42442 14.6996 5.24165 14.721 6.08926 14.4849C2.93972 13.6967 1.46676 10.9475 1.55097 8.78361C1.96028 8.93823 2.35647 9.12045 2.77131 9.23572C3.17854 9.34892 3.60442 9.39309 4.03996 9.42898C2.66916 8.38052 1.83328 7.02973 1.62552 5.33589C1.46124 3.99753 1.75666 2.7413 2.37442 1.74598C5.49842 5.42148 9.44863 7.45284 14.2955 7.77725C14.154 7.00902 14.1367 6.28151 14.2354 5.5471C14.5239 3.40876 16.2744 1.4195 18.3678 0.886643C20.5138 0.339978 22.396 0.828664 24.0181 2.33959C24.0982 2.41413 24.2624 2.45762 24.3708 2.43553C25.4931 2.20706 26.554 1.8088 27.5542 1.24902C27.6246 1.20967 27.6984 1.17654 27.8234 1.11442C27.383 2.46452 26.5616 3.455 25.4469 4.23359C26.5278 4.12867 27.5473 3.82497 28.5384 3.41428C28.5585 3.43775 28.5792 3.46122 28.5992 3.48399C28.1333 4.02928 27.6908 4.59665 27.1946 5.11157C26.8018 5.5195 26.3359 5.85702 25.9176 6.24217C25.8251 6.32707 25.743 6.47961 25.743 6.60109C25.7354 12.5606 23.3879 17.3487 18.5349 20.8386C16.4876 22.3108 14.1498 23.1074 11.6498 23.4345C9.28712 23.7437 6.95896 23.5947 4.66807 22.9362C3.22272 22.5207 1.86365 21.907 0.588094 21.1091C0.561175 21.0919 0.538397 21.0656 0.475586 21.0111Z" fill="white"/>
</svg>
