<svg width="17" height="17" viewBox="0 0 17 17" fill="none" xmlns="http://www.w3.org/2000/svg">
<path id="Vector 29" d="M1.2122 14.3515C0.82168 14.742 0.82168 15.3752 1.2122 15.7657C1.60273 16.1562 2.23589 16.1562 2.62642 15.7657L1.2122 14.3515ZM16.1272 1.8507C16.1272 1.29841 15.6795 0.850699 15.1272 0.850699L6.12721 0.850699C5.57492 0.8507 5.12721 1.29841 5.12721 1.8507C5.12721 2.40298 5.57492 2.8507 6.12721 2.8507L14.1272 2.8507L14.1272 10.8507C14.1272 11.403 14.5749 11.8507 15.1272 11.8507C15.6795 11.8507 16.1272 11.403 16.1272 10.8507L16.1272 1.8507ZM2.62642 15.7657L15.8343 2.55781L14.4201 1.14359L1.2122 14.3515L2.62642 15.7657Z" fill="white"/>
</svg>
