<svg width="19" height="16" viewBox="0 0 19 16" fill="none" xmlns="http://www.w3.org/2000/svg">
<path id="Vector" d="M18.1116 2.68875C17.4452 2.97785 16.7405 3.16896 16.0194 3.25614C16.7802 2.80163 17.3503 2.0866 17.624 1.2437C16.9091 1.66929 16.1264 1.96915 15.3102 2.13023C14.7645 1.53853 14.0379 1.14467 13.2444 1.01041C12.4508 0.876144 11.6351 1.00908 10.9252 1.38837C10.2153 1.76766 9.65132 2.37184 9.32181 3.10617C8.99229 3.84049 8.91582 4.66342 9.10439 5.44589C7.65883 5.37277 6.24481 4.99637 4.9542 4.34114C3.66359 3.6859 2.52526 2.7665 1.61315 1.64264C1.29323 2.20131 1.12512 2.83399 1.12555 3.47777C1.12442 4.07564 1.27114 4.66451 1.55265 5.19195C1.83415 5.71939 2.24172 6.16904 2.73905 6.50087C2.16101 6.48514 1.59531 6.33003 1.09009 6.04873V6.09306C1.09442 6.93074 1.38796 7.74121 1.92105 8.38739C2.45415 9.03356 3.19407 9.47577 4.01566 9.63921C3.6994 9.73546 3.37104 9.7862 3.04047 9.78992C2.81165 9.78725 2.58339 9.7665 2.35784 9.72786C2.5918 10.4485 3.04457 11.0782 3.65314 11.5294C4.2617 11.9807 4.9958 12.231 5.75328 12.2456C4.47418 13.2521 2.89498 13.8014 1.2674 13.8059C0.971059 13.8069 0.674956 13.7891 0.380859 13.7527C2.04261 14.8257 3.97915 15.3953 5.95718 15.3928C7.32218 15.407 8.67631 15.1491 9.9405 14.634C11.2047 14.119 12.3536 13.3572 13.3201 12.3932C14.2865 11.4292 15.0513 10.2823 15.5695 9.01944C16.0878 7.75658 16.3492 6.4031 16.3385 5.03808C16.3385 4.88737 16.3385 4.72779 16.3385 4.56821C17.0342 4.04942 17.6342 3.41343 18.1116 2.68875Z" fill="#0B0D0A"/>
</svg>
