<svg width="19" height="19" viewBox="0 0 19 19" fill="none" xmlns="http://www.w3.org/2000/svg">
<g id="youtube" clip-path="url(#clip0_2013_229)">
<path id="Vector" d="M17.5683 8.17096C17.6057 7.08805 17.3689 6.01324 16.8798 5.04633C16.548 4.64959 16.0875 4.38184 15.5785 4.28976C13.4734 4.09875 11.3595 4.02046 9.24604 4.05523C7.14024 4.01888 5.034 4.09464 2.93626 4.2822C2.52152 4.35764 2.13771 4.55217 1.83167 4.84206C1.15075 5.47001 1.0751 6.54434 0.999441 7.45222C0.889672 9.08457 0.889672 10.7224 0.999441 12.3548C1.02133 12.8658 1.09741 13.373 1.22641 13.8679C1.31764 14.25 1.5022 14.6036 1.76358 14.8969C2.0717 15.2021 2.46445 15.4077 2.89086 15.487C4.52196 15.6883 6.16546 15.7718 7.80856 15.7367C10.4566 15.7745 12.7792 15.7367 15.5256 15.5248C15.9625 15.4504 16.3663 15.2445 16.6831 14.9347C16.8949 14.7228 17.0531 14.4634 17.1446 14.1781C17.4152 13.3479 17.5481 12.479 17.538 11.6058C17.5683 11.1821 17.5683 8.6249 17.5683 8.17096ZM7.5362 12.0597V7.37656L12.0151 9.7295C10.7592 10.4255 9.1023 11.2124 7.5362 12.0597Z" fill="#0B0D0A"/>
</g>
<defs>
<clipPath id="clip0_2013_229">
<rect width="18.1577" height="18.1577" fill="white" transform="translate(0.169922 0.824707)"/>
</clipPath>
</defs>
</svg>
